# xmcd
#
# Track frame offsets: 
#        150
#        21931
#        41529
#        60339
#        76148
#        95561
#        114191
#        133957
#        154402
#        172983
#        191678
#        206435
#        222944
#        242885
#        266624
#        282084
#        297461
#        317253
#        335921
#
# Disc length: 4679 seconds
#
# Revision: 1
# Processed by: cddbd v1.5.2PL0 Copyright (c) Steve Scherf et al.
# Submitted via: ExactAudioCopy v1.3
#
DISCID=17124513
DTITLE=Willy DeVille - Collected CD2
DYEAR=2015
DGENRE=Blues
TTITLE0=Miracle
TTITLE1=Storybook Love
TTITLE2=Assassin of Love
TTITLE3=Hello My Lover
TTITLE4=Beating Like a Tom-Tom
TTITLE5=Hey Joe
TTITLE6=Even While I Sleep
TTITLE7=I Call Your Name
TTITLE8=Voodoo Charm
TTITLE9=Still (I Love You Still)
TTITLE10=Gipsy Deck of Hearts
TTITLE11=Across the Borderline
TTITLE12=Lay Me Down Easy
TTITLE13=The Downing of the Flamingo
TTITLE14=(Don?t Want You) Hanging ?Round My Door
TTITLE15=Come a Little Bit Closer
TTITLE16=Right There, Right Then
TTITLE17=I Remember the First Time
TTITLE18=When I Get Home
EXTD=
EXTT0=
EXTT1=
EXTT2=
EXTT3=
EXTT4=
EXTT5=
EXTT6=
EXTT7=
EXTT8=
EXTT9=
EXTT10=
EXTT11=
EXTT12=
EXTT13=
EXTT14=
EXTT15=
EXTT16=
EXTT17=
EXTT18=
PLAYORDER=
